<!DOCTYPE svg PUBLIC "-//W3C//DTD SVG 1.1//EN" "http://www.w3.org/Graphics/SVG/1.1/DTD/svg11.dtd">
<!-- Uploaded to: SVG Repo, www.svgrepo.com, Transformed by: SVG Repo Mixer Tools -->
<svg fill="#00000000" width="800px" height="800px" viewBox="0 0 24.00 24.00" id="bag-alt-1" data-name="Flat Line" xmlns="http://www.w3.org/2000/svg" class="icon flat-line" stroke="#00000000">
<g id="SVGRepo_bgCarrier" stroke-width="0"/>
<g id="SVGRepo_tracerCarrier" stroke-linecap="round" stroke-linejoin="round"/>
<g id="SVGRepo_iconCarrier">
<path id="secondary" d="M18.15,21H5.85a1,1,0,0,1-1-.84L3,9H21L19.14,20.16A1,1,0,0,1,18.15,21Z" style="fill: #BE8D532ca9bc; stroke-width:2.4;"/>
<path id="primary" d="M12,17V13M8,17V13m8,4V13m2.15,8H5.85a1,1,0,0,1-1-.84L3,9H21L19.14,20.16A1,1,0,0,1,18.15,21ZM9,3,7,9m8-6,2,6" style="fill: none; stroke: #BE8D53; stroke-linecap: round; stroke-linejoin: round; stroke-width:2.4;"/>
</g>
</svg>